<svg width="126" height="50" viewBox="0 0 126 50" fill="none" xmlns="http://www.w3.org/2000/svg">
<path d="M72.0475 42.8299C43.5767 47.4718 19.1805 43.1634 17.5578 33.2082C17.1355 30.6227 18.2958 27.9128 20.7343 25.2339C14.4102 30.5516 11.2515 35.8871 12.4896 40.3889C15.4994 51.3223 43.2877 53.2075 74.5571 44.6018C84.011 41.9985 92.7003 38.7349 100.143 35.1446C92.2735 38.3881 82.6217 41.1048 72.0475 42.8299V42.8299Z" fill="#231F20"/>
<path d="M125.734 9.61018C122.726 -1.32237 94.9377 -3.20744 63.6656 5.39988C54.2116 8.00297 45.5222 11.2663 38.082 14.8564C45.9534 11.6131 55.6009 8.8966 66.1775 7.17158C94.6487 2.53003 119.045 6.83814 120.666 16.7926C121.088 19.3757 119.928 22.0877 117.491 24.7664C123.816 19.449 126.974 14.1139 125.734 9.6124V9.61018Z" fill="#231F20"/>
<path d="M2.67089 13.084H8.79363L9.90037 21.0974H9.93607L14.5638 13.084H20.6866L18.0179 25.2335H14.0752L16.0722 16.1478H16.0387L10.7326 25.2335H7.28526L5.97324 16.1478H5.93754L3.94051 25.2335H0L2.67089 13.084Z" fill="#231F20"/>
<path d="M29.3508 22.4898C28.8006 23.0506 28.0905 23.5602 26.9135 23.5602C25.0307 23.5602 24.3534 22.6656 24.4192 21.4373H33.6139L33.6731 21.1569C34.5038 17.1917 32.3864 15.4204 28.3754 15.4204C24.3644 15.4204 21.5435 17.1739 20.8377 20.5428C20.0991 24.0697 22.109 25.7008 26.3261 25.7008C30.3196 25.7008 32.4412 24.0697 33.2193 22.4898H29.3486H29.3508ZM24.8246 19.5081C25.2521 18.4556 26.2187 17.561 27.9458 17.561C29.673 17.561 30.2648 18.4556 30.2516 19.5081H24.8246V19.5081Z" fill="#231F20"/>
<path d="M35.7714 16.0734H37.6775L38.3048 13.084H41.9469L41.3196 16.0734H43.7244L43.2125 18.5073H40.8077L40.0126 22.2969C39.834 23.1479 40.0126 23.2692 40.9928 23.2692C41.4394 23.2692 41.8031 23.2515 42.2889 23.2339L41.8075 25.5266C41.0473 25.6325 40.0714 25.7008 39.0062 25.7008C36.6362 25.7008 35.7802 25.11 36.2071 23.0774L37.1677 18.5051H35.2617L35.7714 16.0712V16.0734Z" fill="#231F20"/>
<path d="M48.533 19.0138C48.8799 18.2322 49.6271 17.8598 50.9946 17.8598C52.6245 17.8598 53.2694 18.1999 53.1271 18.8437C53.0226 19.3195 52.8202 19.524 51.8418 19.5907L48.0905 19.8276C45.3888 19.9977 43.7855 20.7447 43.3275 22.8309C42.905 24.7492 44.3103 25.7008 47.3434 25.7008C49.2201 25.7008 50.7967 25.464 52.082 24.4779C52.0442 24.732 52.0264 25.0549 52.0886 25.3262H55.8066C55.6242 24.8009 55.6153 24.4435 55.7866 23.6619L56.8072 19.0116C57.3742 16.4302 54.8993 15.8877 51.4438 15.8877C48.533 15.8877 45.7646 16.2795 44.8129 19.0116H48.5308L48.533 19.0138ZM52.6312 21.593C52.3555 22.8503 50.9924 23.6297 48.8532 23.6297C47.8548 23.6297 47.2767 23.2227 47.4323 22.508C47.5546 21.9482 47.9349 21.6597 48.7065 21.5758L51.277 21.2873C51.9797 21.2033 52.4533 21.1172 52.7535 21.0332L52.629 21.593H52.6312Z" fill="#231F20"/>
<path d="M60.1433 12.6167H63.9395L61.1536 25.2335H57.3574L60.1433 12.6167Z" fill="#231F20"/>
<path d="M64.0776 20.5606C63.3853 23.9295 65.3118 25.7008 69.4658 25.7008C73.6199 25.7008 76.2731 23.9273 76.9654 20.5606C77.6578 17.1917 75.7313 15.4204 71.5772 15.4204C67.4232 15.4204 64.77 17.1917 64.0776 20.5606V20.5606ZM71.072 17.877C72.6996 17.877 73.5317 18.7715 73.1662 20.5606C72.7985 22.3496 71.5966 23.2442 69.969 23.2442C68.3413 23.2442 67.5071 22.3496 67.8747 20.5606C68.2424 18.7715 69.4422 17.877 71.0698 17.877H71.072Z" fill="#231F20"/>
<path d="M91.4128 21.4373C90.2597 24.1565 88.0616 25.7008 83.8344 25.7008C79.6072 25.7008 77.4384 24.0697 78.1929 20.5606C78.9338 17.1205 81.9111 15.4204 86.0483 15.4204C89.6336 15.4204 91.9623 16.4907 91.6515 19.5081H87.7801C87.8252 18.4734 87.1721 17.877 85.5731 17.877C83.8142 17.877 82.5417 18.8405 82.1724 20.5606C81.803 22.2807 82.625 23.2442 84.438 23.2442C85.8568 23.2442 86.9266 22.6478 87.4356 21.4373H91.415H91.4128Z" fill="#231F20"/>
<path d="M94.8048 12.6167H98.4245L97.0477 19.1481L101.354 15.8911H106.253L101.256 19.3557L104.696 25.2335H99.7798L97.8941 21.699L96.2748 22.8203L95.7682 25.2335H92.1484L94.8048 12.6167Z" fill="#231F20"/>
<path d="M123.807 25.4199C124.168 25.4199 124.523 25.5126 124.87 25.6979C125.216 25.8831 125.484 26.1478 125.678 26.4919C125.871 26.836 125.966 27.1956 125.966 27.5684C125.966 27.9412 125.871 28.2941 125.68 28.636C125.491 28.9779 125.223 29.2426 124.881 29.4323C124.537 29.622 124.18 29.7146 123.804 29.7146C123.429 29.7146 123.072 29.6198 122.728 29.4323C122.384 29.2448 122.12 28.9779 121.927 28.636C121.736 28.2941 121.641 27.939 121.641 27.5684C121.641 27.1978 121.738 26.836 121.931 26.4919C122.124 26.1478 122.395 25.8831 122.741 25.6979C123.085 25.5126 123.44 25.4199 123.804 25.4199H123.807ZM123.807 25.7751C123.503 25.7751 123.207 25.8523 122.919 26.0067C122.63 26.1611 122.406 26.3817 122.244 26.6706C122.082 26.9574 122 27.2574 122 27.5684C122 27.8794 122.08 28.175 122.24 28.4573C122.4 28.7419 122.622 28.9624 122.908 29.1213C123.194 29.2801 123.494 29.3595 123.804 29.3595C124.115 29.3595 124.415 29.2801 124.701 29.1213C124.987 28.9624 125.209 28.7419 125.369 28.4573C125.527 28.175 125.607 27.8772 125.607 27.5684C125.607 27.2596 125.524 26.9574 125.365 26.6706C125.203 26.3839 124.978 26.1611 124.69 26.0067C124.401 25.8523 124.106 25.7751 123.804 25.7751H123.807ZM122.859 28.7551V26.4434H123.658C123.931 26.4434 124.128 26.4655 124.251 26.5074C124.373 26.5493 124.47 26.6243 124.543 26.7302C124.617 26.836 124.652 26.9507 124.652 27.0677C124.652 27.2375 124.592 27.3831 124.47 27.5088C124.348 27.6345 124.188 27.7051 123.986 27.7206C124.069 27.7559 124.135 27.7956 124.184 27.8419C124.277 27.9323 124.393 28.0867 124.528 28.3007L124.812 28.7529H124.353L124.146 28.3889C123.984 28.1022 123.853 27.9235 123.753 27.8507C123.685 27.7978 123.585 27.7713 123.454 27.7713H123.232V28.7529H122.857L122.859 28.7551ZM123.234 27.4537H123.689C123.907 27.4537 124.055 27.4206 124.135 27.3566C124.215 27.2926 124.255 27.2066 124.255 27.1007C124.255 27.0324 124.235 26.9706 124.197 26.9177C124.16 26.8625 124.106 26.8228 124.037 26.7963C123.969 26.7699 123.844 26.7566 123.66 26.7566H123.234V27.4537V27.4537Z" fill="#231F20"/>
<path d="M53.6815 27.3081H57.4876L58.1756 32.4278H58.1978L61.074 27.3081H64.8801L63.2223 35.0681H60.7722L62.0128 29.2647H61.9906L58.6927 35.0681H56.5489L55.7344 29.2647H55.7122L54.4716 35.0681H52.0215L53.6815 27.3081Z" fill="#231F20"/>
<path d="M109.151 33.297C108.802 33.6455 108.352 33.9609 107.608 33.9609C106.416 33.9609 105.988 33.4073 106.03 32.6463H111.849L111.887 32.472C112.413 30.0147 111.073 28.9185 108.536 28.9185C105.999 28.9185 104.213 30.0059 103.767 32.0926C103.301 34.2786 104.57 35.2888 107.24 35.2888C109.765 35.2888 111.108 34.2786 111.603 33.2992H109.153L109.151 33.297ZM106.288 31.4485C106.558 30.7956 107.169 30.2419 108.263 30.2419C109.357 30.2419 109.73 30.7956 109.721 31.4485H106.288V31.4485Z" fill="#231F20"/>
<path d="M67.9658 31.027C68.1811 30.5263 68.6494 30.2881 69.5016 30.2881C70.518 30.2881 70.9197 30.5043 70.831 30.9189C70.7666 31.2233 70.6401 31.3535 70.0298 31.3976L67.6907 31.5498C66.004 31.6579 65.0053 32.1366 64.7212 33.4733C64.4594 34.7019 65.3338 35.3107 67.2268 35.3107C68.3964 35.3107 69.3818 35.1585 70.1829 34.5276C70.1585 34.6909 70.1474 34.8982 70.1874 35.0703H72.5065C72.3934 34.7328 72.3867 34.5056 72.4932 34.0049L73.1302 31.027C73.483 29.3749 71.9406 29.0264 69.7857 29.0264C67.9703 29.0264 66.2437 29.2756 65.6511 31.027H67.9703H67.9658ZM70.5203 32.6792C70.3494 33.4843 69.4972 33.9828 68.1634 33.9828C67.5397 33.9828 67.1802 33.7225 67.2779 33.2659C67.3555 32.9064 67.5908 32.7233 68.0724 32.6682L69.6747 32.4829C70.1119 32.4277 70.4093 32.3748 70.5957 32.3196L70.518 32.6792H70.5203Z" fill="#231F20"/>
<path d="M82.0577 32.6702C81.3453 34.3576 79.9915 35.3172 77.3838 35.3172C74.7762 35.3172 73.4379 34.3047 73.904 32.1276C74.3611 29.9924 76.1965 28.938 78.7509 28.938C80.9636 28.938 82.3995 29.6019 82.2064 31.4747H79.8184C79.845 30.8328 79.4433 30.4622 78.458 30.4622C77.3727 30.4622 76.5893 31.06 76.3607 32.1276C76.1322 33.1952 76.6404 33.793 77.7589 33.793C78.6333 33.793 79.2947 33.4224 79.6076 32.6724H82.0621L82.0577 32.6702Z" fill="#231F20"/>
<path d="M84.1947 27.1028H86.4317L85.8014 30.0475H85.8214C86.414 29.4762 87.3505 29.0549 88.5134 29.0549C89.9582 29.0549 90.8659 29.7453 90.553 31.2034L89.7274 35.0591H87.4237L88.1006 31.8938C88.2582 31.1482 87.9142 30.7821 87.1419 30.7821C86.3274 30.7821 85.6128 31.2254 85.4064 32.185L84.7939 35.0569H82.4902L84.1924 27.1006L84.1947 27.1028Z" fill="#231F20"/>
<path d="M92.8094 27.103H95.1285L94.8311 28.4949H92.512L92.8094 27.103ZM92.3677 29.1677H94.6869L93.4285 35.0594H91.1094L92.3677 29.1677Z" fill="#231F20"/>
<path d="M95.8355 29.088H98.1214L97.9372 29.9483H97.9571C98.5608 29.3637 99.5195 28.9336 100.707 28.9336C102.183 28.9336 103.11 29.6395 102.791 31.1284L101.947 35.0679H99.5928L100.285 31.8342C100.447 31.0732 100.094 30.6982 99.3065 30.6982C98.4742 30.6982 97.7441 31.1504 97.5333 32.132L96.9074 35.0679H94.5527L95.8311 29.088H95.8355Z" fill="#231F20"/>
<path d="M116.629 30.138C117.246 30.1292 117.752 30.3917 117.772 30.8814H120.054C120.054 29.3748 118.345 28.916 116.361 28.916C114.377 28.916 113.18 29.9726 113.191 31.1196C113.2 32.2666 114.303 32.5049 115.173 32.6019C116.443 32.7431 117.615 32.6085 117.579 33.3673C117.561 33.7533 117.08 34.0467 116.485 34.0489C115.648 34.0511 114.942 33.9563 114.942 33.3232H112.67C112.67 35.0261 114.283 35.2842 116.279 35.2842C118.125 35.2842 119.807 34.5651 119.807 32.9262C119.807 32.1784 119.288 31.7659 118.469 31.5674C117.592 31.3556 115.107 31.5145 115.311 30.7226C115.4 30.3763 115.832 30.1469 116.634 30.1358L116.629 30.138Z" fill="#231F20"/>
</svg>
