<svg width="45" height="19" viewBox="0 0 45 19" fill="none" xmlns="http://www.w3.org/2000/svg">
<g clip-path="url(#clip0_806_5)">
<path d="M25.7131 16.2959C15.5468 18.046 6.83539 16.4216 6.25595 12.6682C6.10514 11.6934 6.51947 10.6716 7.39022 9.66162C5.132 11.6666 4.00408 13.6782 4.4462 15.3755C5.52094 19.4977 15.4436 20.2085 26.6093 16.9639C29.9851 15.9824 33.0878 14.7519 35.7453 13.3983C32.9354 14.6212 29.489 15.6454 25.7131 16.2959V16.2959Z" fill="#FAE000"/>
<path d="M44.8803 3.62359C43.8064 -0.498609 33.8837 -1.20939 22.7173 2.03607C19.3415 3.01758 16.2387 4.24804 13.582 5.60171C16.3927 4.3788 19.8376 3.35453 23.6142 2.7041C33.7806 0.953968 42.492 2.57837 43.0706 6.33177C43.2214 7.30574 42.8071 8.32833 41.9371 9.33834C44.1953 7.3334 45.3233 5.32176 44.8803 3.62443V3.62359Z" fill="#FAE000"/>
<path d="M0.950117 4.93359H3.12816L3.52186 8.04662H3.53456L5.1808 4.93359H7.35885L6.40952 9.65342H5.00697L5.71737 6.12382H5.70547L3.81793 9.65342H2.59159L2.12487 6.12382H2.11217L1.40176 9.65342H0L0.950117 4.93359Z" fill="#004B8D"/>
<path d="M10.5045 8.5887C10.3053 8.79992 10.0481 8.99187 9.62186 8.99187C8.94003 8.99187 8.69476 8.65491 8.71857 8.19224H12.0483L12.0698 8.08663C12.3706 6.59298 11.6038 5.92578 10.1513 5.92578C8.69873 5.92578 7.67717 6.58627 7.42159 7.85529C7.15409 9.18381 7.88196 9.7982 9.40913 9.7982C10.8553 9.7982 11.6237 9.18381 11.9055 8.5887H10.5037H10.5045ZM8.86542 7.46553C9.0202 7.06907 9.37024 6.73212 9.99571 6.73212C10.6212 6.73212 10.8355 7.06907 10.8307 7.46553H8.86542V7.46553Z" fill="#004B8D"/>
<path d="M12.676 6.07115H13.3705L13.5991 4.93457H14.9262L14.6976 6.07115H15.5739L15.3874 6.99651H14.5111L14.2214 8.43735C14.1563 8.76089 14.2214 8.80699 14.5786 8.80699C14.7413 8.80699 14.8739 8.80028 15.0509 8.79358L14.8754 9.66529C14.5984 9.70553 14.2428 9.73151 13.8547 9.73151C12.9911 9.73151 12.6791 9.50688 12.8347 8.73407L13.1848 6.99567H12.4902L12.676 6.07031V6.07115Z" fill="#004B8D"/>
<path d="M17.3063 7.1941C17.4301 6.88984 17.6968 6.74483 18.185 6.74483C18.7668 6.74483 18.997 6.87726 18.9462 7.12788C18.9089 7.31312 18.8366 7.39275 18.4874 7.41873L17.1483 7.51093C16.1839 7.57715 15.6116 7.868 15.4481 8.6802C15.2973 9.42702 15.799 9.7975 16.8816 9.7975C17.5516 9.7975 18.1143 9.7053 18.5731 9.32141C18.5596 9.42032 18.5533 9.54605 18.5755 9.65166H19.9026C19.8376 9.44714 19.8344 9.308 19.8955 9.00374L20.2598 7.19326C20.4622 6.18827 19.5788 5.97705 18.3453 5.97705C17.3063 5.97705 16.3181 6.1296 15.9784 7.19326H17.3055L17.3063 7.1941ZM18.7692 8.19824C18.6708 8.68774 18.1842 8.99117 17.4206 8.99117C17.0642 8.99117 16.8578 8.83275 16.9134 8.55447C16.957 8.33654 17.0928 8.22423 17.3682 8.19154L18.2858 8.07922C18.5366 8.04653 18.7057 8.013 18.8128 7.98032L18.7684 8.19824H18.7692Z" fill="#004B8D"/>
<path d="M21.472 4.81543H22.7991L21.8252 9.6526H20.498L21.472 4.81543Z" fill="#004B8D"/>
<path d="M22.7854 7.86199C22.5298 9.13101 23.241 9.7982 24.7745 9.7982C26.308 9.7982 27.2875 9.13017 27.5431 7.86199C27.7987 6.59298 27.0875 5.92578 25.554 5.92578C24.0205 5.92578 23.041 6.59298 22.7854 7.86199V7.86199ZM25.3675 6.85114C25.9683 6.85114 26.2755 7.18809 26.1406 7.86199C26.0048 8.53589 25.5611 8.87284 24.9603 8.87284C24.3594 8.87284 24.0514 8.53589 24.1872 7.86199C24.3229 7.18809 24.7658 6.85114 25.3667 6.85114H25.3675Z" fill="#004B8D"/>
<path d="M32.6001 8.19224C32.1937 9.2165 31.419 9.7982 29.9292 9.7982C28.4393 9.7982 27.6749 9.18381 27.9408 7.86199C28.202 6.56616 29.2513 5.92578 30.7094 5.92578C31.9731 5.92578 32.7938 6.32895 32.6843 7.46553H31.3198C31.3357 7.07577 31.1055 6.85114 30.5419 6.85114C29.922 6.85114 29.4735 7.21407 29.3434 7.86199C29.2132 8.50991 29.5029 8.87284 30.1419 8.87284C30.6419 8.87284 31.019 8.64821 31.1984 8.19224H32.6009H32.6001Z" fill="#004B8D"/>
<path d="M33.8255 4.81543H35.1526L34.6478 7.31993L36.2266 6.07103H38.0228L36.1909 7.39956L37.4521 9.65344H35.6495L34.9582 8.29809L34.3644 8.72808L34.1787 9.65344H32.8516L33.8255 4.81543Z" fill="#004B8D"/>
<path d="M44.2278 9.65918C44.3572 9.65918 44.4842 9.69438 44.608 9.76479C44.7319 9.8352 44.8279 9.93578 44.897 10.0665C44.966 10.1973 45.0001 10.3339 45.0001 10.4756C45.0001 10.6172 44.966 10.7513 44.8977 10.8813C44.8303 11.0112 44.7342 11.1118 44.612 11.1838C44.489 11.2559 44.3612 11.2911 44.227 11.2911C44.0929 11.2911 43.9651 11.2551 43.8421 11.1838C43.719 11.1126 43.6246 11.0112 43.5555 10.8813C43.4873 10.7513 43.4531 10.6164 43.4531 10.4756C43.4531 10.3348 43.488 10.1973 43.5571 10.0665C43.6262 9.93578 43.723 9.8352 43.8468 9.76479C43.9699 9.69438 44.0969 9.65918 44.227 9.65918H44.2278ZM44.2278 9.79413C44.1191 9.79413 44.0135 9.82346 43.9103 9.88214C43.8071 9.94081 43.727 10.0246 43.669 10.1344C43.6111 10.2434 43.5817 10.3574 43.5817 10.4756C43.5817 10.5938 43.6103 10.7061 43.6674 10.8134C43.7246 10.9215 43.804 11.0053 43.9064 11.0657C44.0088 11.126 44.1159 11.1562 44.227 11.1562C44.3382 11.1562 44.4453 11.126 44.5477 11.0657C44.6501 11.0053 44.7295 10.9215 44.7866 10.8134C44.843 10.7061 44.8716 10.5929 44.8716 10.4756C44.8716 10.3582 44.8422 10.2434 44.785 10.1344C44.7271 10.0255 44.6469 9.94081 44.5437 9.88214C44.4405 9.82346 44.335 9.79413 44.227 9.79413H44.2278ZM43.8889 10.9265V10.0481H44.1746C44.2723 10.0481 44.3429 10.0565 44.3866 10.0724C44.4302 10.0883 44.4652 10.1168 44.4913 10.1571C44.5175 10.1973 44.5302 10.2409 44.5302 10.2853C44.5302 10.3498 44.5088 10.4052 44.4652 10.4529C44.4215 10.5007 44.3643 10.5275 44.2921 10.5334C44.3215 10.5468 44.3453 10.5619 44.3628 10.5795C44.3961 10.6139 44.4374 10.6725 44.4858 10.7539L44.5874 10.9257H44.4231L44.3493 10.7874C44.2913 10.6784 44.2445 10.6105 44.2088 10.5829C44.1842 10.5627 44.1484 10.5527 44.1016 10.5527H44.0222V10.9257H43.8881L43.8889 10.9265ZM44.023 10.432H44.1858C44.2635 10.432 44.3167 10.4194 44.3453 10.3951C44.3739 10.3708 44.3882 10.3381 44.3882 10.2979C44.3882 10.2719 44.381 10.2484 44.3675 10.2283C44.354 10.2074 44.335 10.1923 44.3104 10.1822C44.2858 10.1721 44.2413 10.1671 44.1754 10.1671H44.023V10.432V10.432Z" fill="#004B8D"/>
<path d="M19.1465 10.3765H20.5077L20.7538 12.3219H20.7617L21.7904 10.3765H23.1517L22.5588 13.3252H21.6825L22.1262 11.1199H22.1183L20.9387 13.3252H20.172L19.8807 11.1199H19.8727L19.429 13.3252H18.5527L19.1465 10.3765Z" fill="#004B8D"/>
<path d="M38.9849 12.6526C38.8603 12.785 38.6991 12.9049 38.4332 12.9049C38.007 12.9049 37.8538 12.6945 37.8689 12.4053H39.9501L39.9636 12.3391C40.1517 11.4053 39.6723 10.9888 38.765 10.9888C37.8578 10.9888 37.2188 11.402 37.0593 12.1949C36.8926 13.0256 37.3466 13.4094 38.3015 13.4094C39.2048 13.4094 39.685 13.0256 39.862 12.6534H38.9857L38.9849 12.6526ZM37.961 11.9502C38.0578 11.7021 38.2761 11.4917 38.6674 11.4917C39.0587 11.4917 39.1921 11.7021 39.1889 11.9502H37.961V11.9502Z" fill="#004B8D"/>
<path d="M24.2548 11.79C24.3318 11.5998 24.4993 11.5092 24.8041 11.5092C25.1677 11.5092 25.3113 11.5914 25.2796 11.7489C25.2566 11.8646 25.2113 11.9141 24.993 11.9308L24.1564 11.9887C23.5532 12.0297 23.196 12.2116 23.0944 12.7196C23.0007 13.1864 23.3135 13.4178 23.9905 13.4178C24.4088 13.4178 24.7613 13.3599 25.0478 13.1202C25.0391 13.1822 25.0351 13.261 25.0494 13.3264H25.8789C25.8384 13.1982 25.836 13.1118 25.8741 12.9216L26.1019 11.79C26.2281 11.1622 25.6764 11.0298 24.9057 11.0298C24.2564 11.0298 23.6389 11.1245 23.427 11.79H24.2564H24.2548ZM25.1684 12.4178C25.1073 12.7238 24.8025 12.9132 24.3255 12.9132C24.1024 12.9132 23.9739 12.8143 24.0088 12.6408C24.0366 12.5042 24.1207 12.4346 24.2929 12.4136L24.866 12.3432C25.0224 12.3223 25.1288 12.3022 25.1954 12.2812L25.1677 12.4178H25.1684Z" fill="#004B8D"/>
<path d="M29.2947 12.4143C29.0399 13.0555 28.5557 13.4201 27.623 13.4201C26.6904 13.4201 26.2117 13.0354 26.3784 12.2081C26.5419 11.3967 27.1984 10.9961 28.112 10.9961C28.9033 10.9961 29.4169 11.2484 29.3478 11.96H28.4938C28.5033 11.7161 28.3596 11.5753 28.0072 11.5753C27.619 11.5753 27.3389 11.8024 27.2571 12.2081C27.1753 12.6138 27.3571 12.8409 27.7572 12.8409C28.0699 12.8409 28.3064 12.7001 28.4184 12.4151H29.2962L29.2947 12.4143Z" fill="#004B8D"/>
<path d="M30.0588 10.2987H30.8589L30.6335 11.4177H30.6406C30.8526 11.2006 31.1875 11.0405 31.6035 11.0405C32.1202 11.0405 32.4448 11.3028 32.3329 11.8569L32.0376 13.322H31.2137L31.4558 12.1192C31.5122 11.8359 31.3891 11.6968 31.1129 11.6968C30.8216 11.6968 30.566 11.8653 30.4922 12.2299L30.2731 13.3212H29.4492L30.058 10.2979L30.0588 10.2987Z" fill="#004B8D"/>
<path d="M33.1412 10.2988H33.9707L33.8643 10.8277H33.0349L33.1412 10.2988ZM32.9833 11.0834H33.8127L33.3627 13.3222H32.5332L32.9833 11.0834Z" fill="#004B8D"/>
<path d="M34.2225 11.0533H35.04L34.9741 11.3802H34.9813C35.1972 11.1581 35.5401 10.9946 35.9647 10.9946C36.4926 10.9946 36.8244 11.2628 36.7101 11.8286L36.4084 13.3256H35.5663L35.8139 12.0968C35.8719 11.8077 35.7457 11.6652 35.4639 11.6652C35.1662 11.6652 34.9051 11.837 34.8297 12.21L34.6058 13.3256H33.7637L34.2209 11.0533H34.2225Z" fill="#004B8D"/>
<path d="M41.6602 11.4521C41.8809 11.4488 42.0618 11.5485 42.069 11.7346H42.8849C42.8849 11.1621 42.2738 10.9878 41.5641 10.9878C40.8545 10.9878 40.4267 11.3893 40.4307 11.8251C40.4338 12.261 40.8283 12.3515 41.1395 12.3884C41.5935 12.442 42.0126 12.3909 41.9999 12.6793C41.9936 12.8259 41.8213 12.9374 41.6086 12.9383C41.3094 12.9391 41.0569 12.903 41.0569 12.6625H40.2441C40.2441 13.3096 40.8212 13.4076 41.5348 13.4076C42.1952 13.4076 42.7968 13.1344 42.7968 12.5116C42.7968 12.2275 42.6111 12.0707 42.3182 11.9953C42.0047 11.9148 41.1157 11.9752 41.1887 11.6743C41.2205 11.5427 41.3752 11.4555 41.6618 11.4513L41.6602 11.4521Z" fill="#004B8D"/>
</g>
<defs>
<clipPath id="clip0_806_5">
<rect width="45" height="19" fill="white"/>
</clipPath>
</defs>
</svg>
