<svg width="128" height="54" viewBox="0 0 128 54" fill="none" xmlns="http://www.w3.org/2000/svg">
<g clip-path="url(#clip0_806_5)">
<path d="M73.1387 46.3152C44.2211 51.2892 19.4421 46.6725 17.7939 36.005C17.3649 33.2344 18.5435 30.3305 21.0202 27.46C14.5969 33.1582 11.3886 38.8755 12.6462 43.6995C15.7032 55.4152 43.9276 57.4353 75.6877 48.2138C85.29 45.4242 94.1157 41.9271 101.675 38.0799C93.6822 41.5555 83.8789 44.4666 73.1387 46.3152V46.3152Z" fill="#FAE000"/>
<path d="M127.661 10.2981C124.606 -1.41759 96.3819 -3.4377 64.6195 5.78623C55.0172 8.5758 46.1915 12.0729 38.6348 15.9202C46.6295 12.4445 56.4283 9.53345 67.1708 7.68485C96.0883 2.71079 120.867 7.32752 122.513 17.9951C122.942 20.7632 121.764 23.6695 119.289 26.5401C125.713 20.8418 128.921 15.1245 127.661 10.3005V10.2981Z" fill="#FAE000"/>
<path d="M2.70256 14.0215H8.89789L10.0177 22.869H10.0539L14.7365 14.0215H20.9318L18.2315 27.4357H14.242L16.2627 17.4042H16.2289L10.8599 27.4357H7.37163L6.04406 17.4042H6.00794L3.98723 27.4357H0L2.70256 14.0215Z" fill="#004B8D"/>
<path d="M29.8771 24.4106C29.3104 25.0109 28.5788 25.5564 27.3664 25.5564C25.427 25.5564 24.7293 24.5988 24.7971 23.2838H34.2684L34.3294 22.9836C35.1851 18.7385 33.0041 16.8423 28.8723 16.8423C24.7406 16.8423 21.8349 18.7195 21.1079 22.3261C20.347 26.1019 22.4174 27.8481 26.7613 27.8481C30.875 27.8481 33.0605 26.1019 33.862 24.4106H29.8748H29.8771ZM25.2148 21.2184C25.655 20.0916 26.6507 19.134 28.4298 19.134C30.209 19.134 30.8186 20.0916 30.805 21.2184H25.2148V21.2184Z" fill="#004B8D"/>
<path d="M36.0537 17.2542H38.0293L38.6795 14.0239H42.4545L41.8043 17.2542H44.2968L43.7663 19.8842H41.2737L40.4496 23.9792C40.2645 24.8987 40.4496 25.0298 41.4656 25.0298C41.9284 25.0298 42.3055 25.0107 42.809 24.9916L42.31 27.4691C41.522 27.5835 40.5106 27.6573 39.4065 27.6573C36.95 27.6573 36.0627 27.0189 36.5053 24.8225L37.5009 19.8818H35.5254L36.0537 17.2518V17.2542Z" fill="#004B8D"/>
<path d="M49.2293 20.4468C49.5815 19.582 50.3401 19.1699 51.7286 19.1699C53.3836 19.1699 54.0383 19.5463 53.8938 20.2586C53.7877 20.785 53.5823 21.0114 52.5888 21.0852L48.78 21.3472C46.0368 21.5354 44.4089 22.3621 43.9438 24.6704C43.5148 26.793 44.9418 27.8459 48.0214 27.8459C49.9269 27.8459 51.5277 27.5839 52.8327 26.4928C52.7943 26.7739 52.7762 27.1313 52.8395 27.4314H56.6145C56.4293 26.8502 56.4203 26.4547 56.5941 25.59L57.6305 20.4444C58.2062 17.5881 55.6933 16.9878 52.1847 16.9878C49.2293 16.9878 46.4183 17.4214 45.452 20.4444H49.227L49.2293 20.4468ZM53.3904 23.3007C53.1104 24.6919 51.7264 25.5542 49.5544 25.5542C48.5407 25.5542 47.9536 25.104 48.1117 24.3131C48.2359 23.6937 48.6219 23.3745 49.4054 23.2816L52.0154 22.9624C52.7288 22.8695 53.2097 22.7742 53.5145 22.6813L53.3881 23.3007H53.3904Z" fill="#004B8D"/>
<path d="M61.0769 13.686H64.8519L62.0816 27.4338H58.3066L61.0769 13.686Z" fill="#004B8D"/>
<path d="M64.8131 22.3452C64.0861 25.9519 66.109 27.8481 70.4711 27.8481C74.8331 27.8481 77.6192 25.9495 78.3462 22.3452C79.0732 18.7385 77.0502 16.8423 72.6882 16.8423C68.3262 16.8423 65.5401 18.7385 64.8131 22.3452V22.3452ZM72.1576 19.4722C73.8668 19.4722 74.7405 20.4299 74.3567 22.3452C73.9706 24.2605 72.7085 25.2181 70.9994 25.2181C69.2902 25.2181 68.4142 24.2605 68.8003 22.3452C69.1864 20.4299 70.4462 19.4722 72.1554 19.4722H72.1576Z" fill="#004B8D"/>
<path d="M92.7276 23.2838C91.5717 26.1949 89.3681 27.8481 85.1302 27.8481C80.8924 27.8481 78.7181 26.1019 79.4745 22.3452C80.2173 18.6623 83.2021 16.8423 87.3496 16.8423C90.944 16.8423 93.2785 17.9881 92.967 21.2184H89.0858C89.131 20.1107 88.4762 19.4722 86.8732 19.4722C85.1099 19.4722 83.8343 20.5037 83.464 22.3452C83.0937 24.1866 83.9178 25.2181 85.7353 25.2181C87.1577 25.2181 88.2301 24.5797 88.7404 23.2838H92.7299H92.7276Z" fill="#004B8D"/>
<path d="M96.2176 13.686H99.9926L98.5566 20.8041L103.047 17.2546H108.157L102.946 21.0304L106.533 27.4362H101.406L99.4394 23.5841L97.7506 24.8062L97.2223 27.4362H93.4473L96.2176 13.686Z" fill="#004B8D"/>
<path d="M125.803 27.4526C126.171 27.4526 126.532 27.5527 126.885 27.7528C127.237 27.9529 127.51 28.2388 127.707 28.6104C127.903 28.982 128 29.3703 128 29.7729C128 30.1755 127.903 30.5567 127.709 30.9259C127.517 31.2951 127.244 31.581 126.896 31.7859C126.546 31.9908 126.183 32.0908 125.801 32.0908C125.419 32.0908 125.056 31.9884 124.706 31.7859C124.356 31.5834 124.087 31.2951 123.891 30.9259C123.697 30.5567 123.6 30.1731 123.6 29.7729C123.6 29.3727 123.699 28.982 123.895 28.6104C124.092 28.2388 124.367 27.9529 124.719 27.7528C125.069 27.5527 125.431 27.4526 125.801 27.4526H125.803ZM125.803 27.8362C125.494 27.8362 125.194 27.9196 124.9 28.0863C124.607 28.2531 124.379 28.4913 124.214 28.8034C124.049 29.113 123.965 29.437 123.965 29.7729C123.965 30.1088 124.047 30.428 124.209 30.7329C124.372 31.0402 124.598 31.2785 124.889 31.45C125.18 31.6215 125.485 31.7073 125.801 31.7073C126.117 31.7073 126.422 31.6215 126.713 31.45C127.004 31.2785 127.23 31.0402 127.393 30.7329C127.553 30.428 127.634 30.1064 127.634 29.7729C127.634 29.4394 127.551 29.113 127.388 28.8034C127.223 28.4937 126.995 28.2531 126.702 28.0863C126.408 27.9196 126.108 27.8362 125.801 27.8362H125.803ZM124.839 31.0545V28.558H125.652C125.93 28.558 126.131 28.5818 126.255 28.6271C126.379 28.6723 126.478 28.7533 126.553 28.8677C126.627 28.982 126.663 29.1059 126.663 29.2321C126.663 29.4156 126.602 29.5728 126.478 29.7086C126.354 29.8444 126.192 29.9206 125.986 29.9373C126.07 29.9754 126.137 30.0183 126.187 30.0683C126.282 30.166 126.399 30.3327 126.537 30.5638L126.826 31.0522H126.359L126.149 30.6591C125.984 30.3494 125.851 30.1564 125.749 30.0778C125.679 30.0207 125.577 29.9921 125.444 29.9921H125.218V31.0522H124.837L124.839 31.0545ZM125.221 29.649H125.684C125.905 29.649 126.056 29.6133 126.137 29.5442C126.219 29.4751 126.259 29.3822 126.259 29.2679C126.259 29.194 126.239 29.1273 126.201 29.0702C126.162 29.0106 126.108 28.9677 126.038 28.9391C125.968 28.9106 125.842 28.8963 125.654 28.8963H125.221V29.649V29.649Z" fill="#004B8D"/>
<path d="M54.4623 29.4917H58.3343L59.0342 35.0208H59.0568L61.9829 29.4917H65.855L64.1684 37.8723H61.6758L62.9379 31.6047H62.9154L59.5603 37.8723H57.3793L56.5507 31.6047H56.5281L55.266 37.8723H52.7734L54.4623 29.4917Z" fill="#004B8D"/>
<path d="M110.894 35.9596C110.54 36.336 110.081 36.6767 109.325 36.6767C108.112 36.6767 107.677 36.0788 107.72 35.2569H113.639L113.678 35.0687C114.213 32.4149 112.849 31.231 110.269 31.231C107.688 31.231 105.87 32.4054 105.417 34.659C104.943 37.0197 106.234 38.1108 108.95 38.1108C111.519 38.1108 112.885 37.0197 113.389 35.962H110.896L110.894 35.9596ZM107.981 33.9634C108.257 33.2582 108.878 32.6603 109.991 32.6603C111.104 32.6603 111.483 33.2582 111.474 33.9634H107.981V33.9634Z" fill="#004B8D"/>
<path d="M68.9936 33.5083C69.2126 32.9676 69.689 32.7103 70.556 32.7103C71.59 32.7103 71.9987 32.9437 71.9084 33.3916C71.8429 33.7203 71.7142 33.8609 71.0933 33.9085L68.7136 34.0729C66.9977 34.1896 65.9817 34.7066 65.6927 36.1502C65.4263 37.4771 66.3159 38.1346 68.2417 38.1346C69.4316 38.1346 70.434 37.9702 71.2491 37.2889C71.2243 37.4652 71.213 37.6891 71.2536 37.8749H73.613C73.4978 37.5104 73.4911 37.2651 73.5995 36.7243L74.2474 33.5083C74.6064 31.724 73.0373 31.3477 70.845 31.3477C68.9981 31.3477 67.2416 31.6168 66.6387 33.5083H68.9981H68.9936ZM71.5923 35.2926C71.4184 36.1621 70.5515 36.7005 69.1945 36.7005C68.5601 36.7005 68.1943 36.4194 68.2937 35.9263C68.3727 35.538 68.612 35.3402 69.102 35.2807L70.7321 35.0806C71.1769 35.021 71.4794 34.9639 71.669 34.9043L71.59 35.2926H71.5923Z" fill="#004B8D"/>
<path d="M83.3295 35.2831C82.6048 37.1055 81.2275 38.1418 78.5747 38.1418C75.9218 38.1418 74.5603 37.0484 75.0345 34.6971C75.4996 32.3911 77.3667 31.2524 79.9654 31.2524C82.2164 31.2524 83.6772 31.9695 83.4808 33.992H81.0514C81.0785 33.2988 80.6699 32.8986 79.6674 32.8986C78.5634 32.8986 77.7664 33.5441 77.5338 34.6971C77.3013 35.8501 77.8183 36.4957 78.9562 36.4957C79.8458 36.4957 80.5186 36.0955 80.8369 35.2855H83.334L83.3295 35.2831Z" fill="#004B8D"/>
<path d="M85.5035 29.2704H87.7793L87.1381 32.4507H87.1585C87.7613 31.8337 88.7141 31.3787 89.8971 31.3787C91.3669 31.3787 92.2904 32.1243 91.972 33.699L91.1321 37.8631H88.7886L89.4772 34.4446C89.6375 33.6394 89.2875 33.244 88.5018 33.244C87.6732 33.244 86.9462 33.7228 86.7363 34.7591L86.1131 37.8607H83.7695L85.5012 29.2681L85.5035 29.2704Z" fill="#004B8D"/>
<path d="M94.2685 29.2705H96.6279L96.3254 30.7737H93.966L94.2685 29.2705ZM93.8192 31.5003H96.1786L94.8984 37.8631H92.5391L93.8192 31.5003Z" fill="#004B8D"/>
<path d="M97.346 31.4143H99.6715L99.4841 32.3434H99.5044C100.119 31.7121 101.094 31.2476 102.302 31.2476C103.803 31.2476 104.747 32.0099 104.422 33.6179L103.564 37.8725H101.168L101.873 34.3802C102.038 33.5583 101.679 33.1533 100.877 33.1533C100.03 33.1533 99.2877 33.6417 99.0732 34.7018L98.4365 37.8725H96.041L97.3415 31.4143H97.346Z" fill="#004B8D"/>
<path d="M118.502 32.5483C119.13 32.5387 119.645 32.8222 119.665 33.3511H121.986C121.986 31.724 120.248 31.2285 118.229 31.2285C116.211 31.2285 114.994 32.3696 115.005 33.6083C115.014 34.8471 116.136 35.1044 117.021 35.2092C118.313 35.3617 119.505 35.2163 119.469 36.0358C119.451 36.4527 118.961 36.7695 118.356 36.7719C117.505 36.7743 116.787 36.6719 116.787 35.9882H114.475C114.475 37.8272 116.116 38.106 118.146 38.106C120.024 38.106 121.736 37.3294 121.736 35.5594C121.736 34.7518 121.207 34.3063 120.374 34.0919C119.482 33.8632 116.954 34.0348 117.161 33.1795C117.252 32.8055 117.692 32.5578 118.507 32.5459L118.502 32.5483Z" fill="#004B8D"/>
</g>
<defs>
<clipPath id="clip0_806_5">
<rect width="128" height="54" fill="white"/>
</clipPath>
</defs>
</svg>
